<?xml version="1.0" encoding="UTF-8" standalone="no"?>
<svg width="100px" height="65px" viewBox="0 0 100 65" version="1.1" xmlns="http://www.w3.org/2000/svg" xmlns:xlink="http://www.w3.org/1999/xlink">
    <!-- Generator: Sketch 40.3 (33839) - http://www.bohemiancoding.com/sketch -->
    <title>Group 2</title>
    <desc>Created with Sketch.</desc>
    <defs></defs>
    <g id="Page-1" stroke="none" stroke-width="1" fill="none" fill-rule="evenodd">
        <g id="Desktop-HD-Copy" transform="translate(-437.000000, -512.000000)" fill="#FFFFFF">
            <g id="Group-2" transform="translate(437.000000, 512.000000)">
                <path d="M100,33 C100,25.5 94.9,19.3 88,17.5 C85,7.4 75.6,0 64.5,0 C56.8,0 50,3.5 45.5,9 C43.9,8.6 42.2,8.4 40.4,8.3 L40.2,8.3 L39.4,8.3 L39.2,8.3 L39,8.3 C24.9,8.3 13.4,19.1 12.1,32.9 C5.2,34.6 0,40.9 0,48.4 C0,57.1 7,64.2 15.6,64.3 L15.6,64.3 L70.2,64.3 C79.9,64.3 88,57.2 89.7,47.9 C95.7,45.7 100,39.8 100,33 L100,33 Z M70.2,58.3 L16.5,58.3 L15.7,58.3 C10.4,58.2 6,53.7 6,48.4 C6,43.8 9.1,39.8 13.5,38.8 L17.7,37.8 L18.1,33.5 C19.1,22.6 28.1,14.4 38.9,14.4 L39.1,14.4 L39.2,14.4 L39.3,14.4 L39.5,14.4 L39.7,14.4 L40.2,14.4 L40.2,14.4 L40.2,14.4 L40.2,14.4 L40.2,14.4 C48.5,14.7 55.7,19.9 58.6,27.7 L60.6,33 L66,31.3 C67.3,30.9 68.7,30.7 70.1,30.7 C77.7,30.7 83.9,36.9 83.9,44.6 C84,52.1 77.8,58.3 70.2,58.3 L70.2,58.3 Z M89.7,41.2 C88.1,31.8 80,24.6 70.2,24.6 C68.1,24.6 66.1,24.9 64.3,25.5 C62,19.3 57.4,14.3 51.6,11.3 C54.9,8 59.5,6 64.5,6 C72.6,6 79.9,11.4 82.2,19.2 L83.2,22.5 L86.5,23.3 C90.9,24.4 94,28.4 94,33 C94,36.4 92.3,39.4 89.7,41.2 L89.7,41.2 Z" id="Shape"></path>
            </g>
        </g>
    </g>
</svg>