<?xml version="1.0" encoding="UTF-8" standalone="no"?>
<svg width="75px" height="75px" viewBox="0 0 75 75" version="1.1" xmlns="http://www.w3.org/2000/svg" xmlns:xlink="http://www.w3.org/1999/xlink">
    <!-- Generator: Sketch 40.3 (33839) - http://www.bohemiancoding.com/sketch -->
    <title>Group 3</title>
    <desc>Created with Sketch.</desc>
    <defs></defs>
    <g id="Page-1" stroke="none" stroke-width="1" fill="none" fill-rule="evenodd">
        <g id="Desktop-HD-Copy" transform="translate(-981.000000, -512.000000)" fill="#FFFFFF">
            <g id="Group-3" transform="translate(981.000000, 512.000000)">
                <path d="M34.9814969,74.6083333 C24.3814969,74.6083333 14.3814969,70.5083333 6.98149687,63.0083333 C4.38149687,60.4083333 2.18149687,57.5083333 0.381496866,54.3083333 C-0.318503134,53.1083333 -0.018503134,51.5083333 0.981496866,50.6083333 C2.08149687,49.7083333 3.58149687,49.6083333 4.78149687,50.5083333 C17.6814969,60.1083333 35.9814969,58.8083333 47.3814969,47.4083333 C58.7814969,36.0083333 60.0814969,17.7083333 50.4814969,4.80833333 C49.6814969,3.70833333 49.6814969,2.10833333 50.5814969,1.00833333 C51.4814969,-0.0916666667 53.0814969,-0.291666667 54.2814969,0.408333333 C57.4814969,2.20833333 60.3814969,4.40833333 62.9814969,7.00833333 L62.9814969,7.00833333 C78.4814969,22.5083333 78.4814969,47.6083333 62.9814969,63.1083333 C55.5814969,70.5083333 45.5814969,74.6083333 34.9814969,74.6083333 L34.9814969,74.6083333 Z M14.4814969,61.7083333 C20.3814969,66.2083333 27.4814969,68.7083333 34.9814969,68.7083333 C43.9814969,68.7083333 52.3814969,65.2083333 58.7814969,58.8083333 C70.8814969,46.7083333 71.7814969,27.7083333 61.6814969,14.5083333 C65.0814969,27.5083333 61.5814969,41.8083333 51.6814969,51.7083333 C41.7814969,61.5083333 27.4814969,65.0083333 14.4814969,61.7083333 L14.4814969,61.7083333 Z" id="Shape"></path>
            </g>
        </g>
    </g>
</svg>