<?xml version="1.0" encoding="UTF-8" standalone="no"?>
<svg width="100px" height="78px" viewBox="0 0 100 78" version="1.1" xmlns="http://www.w3.org/2000/svg" xmlns:xlink="http://www.w3.org/1999/xlink">
    <!-- Generator: Sketch 40.3 (33839) - http://www.bohemiancoding.com/sketch -->
    <title>Group</title>
    <desc>Created with Sketch.</desc>
    <defs></defs>
    <g id="Page-1" stroke="none" stroke-width="1" fill="none" fill-rule="evenodd">
        <g id="Desktop-HD-Copy" transform="translate(-301.000000, -512.000000)" fill="#FFFFFF">
            <g id="Group" transform="translate(301.000000, 512.000000)">
                <path d="M83.8,43.2 C85.2,40.5 86,37.4 86,34.2 C86,23.2 77,14.2 66,14.2 C58.9,14.2 52.8,17.9 49.2,23.4 C46.5,22.3 43.5,21.7 40.4,21.5 L40.2,21.5 L39.4,21.5 L39.2,21.5 L39,21.5 C24.9,21.5 13.4,32.3 12.1,46.1 C5.2,47.7 0,54 0,61.5 C0,70.2 7,77.3 15.6,77.4 L15.6,77.4 L70.2,77.4 C81.1,77.4 90,68.5 90,57.5 C90,51.9 87.6,46.8 83.8,43.2 L83.8,43.2 Z M66,20.2 C73.7,20.2 80,26.5 80,34.2 C80,36.2 79.6,38.1 78.8,39.8 C76.2,38.5 73.3,37.8 70.2,37.8 C68.1,37.8 66.1,38.1 64.3,38.7 C62.4,33.6 58.9,29.3 54.5,26.3 C57,22.5 61.2,20.2 66,20.2 L66,20.2 Z M70.2,71.5 L16.5,71.5 L15.7,71.5 C10.4,71.4 6,66.9 6,61.5 C6,56.9 9.1,52.9 13.5,51.9 L17.7,50.9 L18.1,46.6 C19.1,35.7 28.1,27.5 38.9,27.5 L39.1,27.5 L39.2,27.5 L39.3,27.5 L39.5,27.5 L39.7,27.5 L40.2,27.5 L40.2,27.5 L40.2,27.5 L40.2,27.5 L40.2,27.5 C48.5,27.8 55.7,33 58.6,40.8 L60.6,46.1 L66,44.4 C67.3,44 68.7,43.8 70.1,43.8 C77.7,43.8 83.9,50 83.9,57.7 C84,65.2 77.8,71.5 70.2,71.5 L70.2,71.5 Z" id="Shape"></path>
                <path d="M49.8,17.9 L49.8,17.9 C48.6,19.1 46.7,19.1 45.6,17.9 L42,14.3 C40.8,13.1 40.8,11.2 42,10.1 L42,10.1 C43.2,8.9 45.1,8.9 46.2,10.1 L49.8,13.7 C50.9,14.8 50.9,16.7 49.8,17.9 L49.8,17.9 Z" id="Shape"></path>
                <path d="M66,11.1 L66,11.1 C64.3,11.1 63,9.8 63,8.1 L63,3.1 C63,1.5 64.3,0.1 66,0.1 L66,0.1 C67.6,0.1 69,1.4 69,3.1 L69,8.1 C69,9.8 67.7,11.1 66,11.1 L66,11.1 Z" id="Shape"></path>
                <path d="M82.3,17.9 L82.3,17.9 C81.1,16.7 81.1,14.8 82.3,13.7 L85.9,10.1 C87.1,8.9 89,8.9 90.1,10.1 L90.1,10.1 C91.3,11.3 91.3,13.2 90.1,14.3 L86.5,17.9 C85.4,19.1 83.5,19.1 82.3,17.9 L82.3,17.9 Z" id="Shape"></path>
                <path d="M89,34.2 L89,34.2 C89,32.5 90.3,31.2 92,31.2 L97,31.2 C98.6,31.2 100,32.5 100,34.2 L100,34.2 C100,35.8 98.7,37.2 97,37.2 L92,37.2 C90.4,37.2 89,35.8 89,34.2 L89,34.2 Z" id="Shape"></path>
            </g>
        </g>
    </g>
</svg>