<?xml version="1.0" encoding="UTF-8" standalone="no"?>
<svg width="90px" height="89px" viewBox="0 0 90 89" version="1.1" xmlns="http://www.w3.org/2000/svg" xmlns:xlink="http://www.w3.org/1999/xlink">
    <!-- Generator: Sketch 40.3 (33839) - http://www.bohemiancoding.com/sketch -->
    <title>Group</title>
    <desc>Created with Sketch.</desc>
    <defs></defs>
    <g id="Page-1" stroke="none" stroke-width="1" fill="none" fill-rule="evenodd">
        <g id="Desktop-HD-Copy" transform="translate(-587.000000, -532.000000)" fill="#FFFFFF">
            <g id="Group" transform="translate(587.000000, 532.000000)">
                <path d="M38.9,6.2 L39.1,6.2 L39.1,6.2 L39.1,6.2 L39.3,6.2 L39.5,6.2 L40,6.2 L40,6.2 L40,6.2 L40,6.2 L40,6.2 C48.3,6.5 55.5,11.7 58.4,19.5 L60.4,24.8 L65.8,23.1 C67.1,22.7 68.5,22.5 69.9,22.5 C77.5,22.5 83.7,28.7 83.7,36.4 C83.7,44.1 77.5,50.3 69.9,50.3 L16.5,50.3 L15.7,50.3 C10.3,50.2 6,45.7 6,40.4 C6,35.8 9.1,31.8 13.5,30.8 L17.7,29.8 L18.1,25.5 C19.1,14.4 28.1,6.2 38.9,6.2 L38.9,6.2 Z M39.5,0.2 L39.3,0.2 L39.1,0.2 C24.9,0.2 13.4,11 12.1,24.7 C5.1,26.4 0,32.7 0,40.2 C0,48.9 7,56 15.6,56.1 L15.6,56.1 L70.2,56.1 C81.1,56.1 90,47.2 90,36.2 C90,25.2 81.1,16.3 70.2,16.3 C68.1,16.3 66.1,16.6 64.3,17.2 C60.6,7.6 51.3,0.6 40.4,0.2 L40.2,0.2 L39.5,0.2 L39.5,0.2 L39.5,0.2 Z" id="Shape"></path>
                <path d="M75.5,61.9 L75.5,61.9 C77,62.7 77.5,64.6 76.6,66 L72.1,73.8 C71.3,75.2 69.5,75.7 68,74.9 L68,74.9 C66.6,74.1 66.1,72.3 66.9,70.8 L71.4,63 C72.2,61.6 74.1,61.1 75.5,61.9 L75.5,61.9 Z" id="Shape"></path>
                <path d="M57.5,71.9 L57.5,71.9 C59,72.7 59.5,74.6 58.6,76 L54.1,83.8 C53.3,85.2 51.5,85.7 50,84.9 L50,84.9 C48.6,84.1 48.1,82.3 48.9,80.8 L53.4,73 C54.2,71.6 56.1,71.1 57.5,71.9 L57.5,71.9 Z" id="Shape"></path>
                <path d="M47,61.9 L47,61.9 C48.5,62.7 49,64.6 48.1,66 L43.6,73.8 C42.8,75.2 41,75.7 39.5,74.9 L39.5,74.9 C38.1,74.1 37.6,72.3 38.4,70.8 L42.9,63 C43.7,61.6 45.5,61.1 47,61.9 L47,61.9 Z" id="Shape"></path>
                <path d="M28,74.8 L28,74.8 C29.5,75.6 30,77.5 29.1,78.9 L24.6,86.7 C23.8,88.1 22,88.6 20.5,87.8 L20.5,87.8 C19.1,87 18.6,85.2 19.4,83.7 L23.9,75.9 C24.7,74.4 26.5,73.9 28,74.8 L28,74.8 Z" id="Shape"></path>
                <path d="M18.5,61.9 L18.5,61.9 C20,62.7 20.5,64.6 19.6,66 L15.1,73.8 C14.3,75.2 12.5,75.7 11,74.9 L11,74.9 C9.6,74.1 9.1,72.3 9.9,70.8 L14.4,63 C15.2,61.6 17.1,61.1 18.5,61.9 L18.5,61.9 Z" id="Shape"></path>
            </g>
        </g>
    </g>
</svg>