<?xml version="1.0" encoding="UTF-8" standalone="no"?>
<svg width="90px" height="85px" viewBox="0 0 90 85" version="1.1" xmlns="http://www.w3.org/2000/svg" xmlns:xlink="http://www.w3.org/1999/xlink">
    <!-- Generator: Sketch 40.3 (33839) - http://www.bohemiancoding.com/sketch -->
    <title>Group</title>
    <desc>Created with Sketch.</desc>
    <defs></defs>
    <g id="Page-1" stroke="none" stroke-width="1" fill="none" fill-rule="evenodd">
        <g id="Desktop-HD-Copy" transform="translate(-856.000000, -512.000000)" fill="#FFFFFF">
            <g id="Group" transform="translate(856.000000, 512.000000)">
                <path d="M38.9,6.2 L39.1,6.2 L39.1,6.2 L39.1,6.2 L39.3,6.2 L39.5,6.2 L40,6.2 L40,6.2 L40,6.2 L40,6.2 L40,6.2 C48.3,6.5 55.5,11.7 58.4,19.5 L60.4,24.8 L65.8,23.1 C67.1,22.7 68.5,22.5 69.9,22.5 C77.5,22.5 83.7,28.7 83.7,36.4 C83.7,44.1 77.5,50.3 69.9,50.3 L16.5,50.3 L15.7,50.3 C10.3,50.2 6,45.7 6,40.4 C6,35.8 9.1,31.8 13.5,30.8 L17.7,29.8 L18.1,25.5 C19.1,14.4 28.1,6.2 38.9,6.2 L38.9,6.2 Z M39.5,0.2 L39.3,0.2 L39.1,0.2 C24.9,0.2 13.4,11 12.1,24.7 C5.1,26.4 0,32.7 0,40.2 C0,48.9 7,56 15.6,56.1 L15.6,56.1 L70.2,56.1 C81.1,56.1 90,47.2 90,36.2 C90,25.2 81.1,16.3 70.2,16.3 C68.1,16.3 66.1,16.6 64.3,17.2 C60.6,7.6 51.3,0.6 40.4,0.2 L40.2,0.2 L39.5,0.2 L39.5,0.2 L39.5,0.2 Z" id="Shape"></path>
                <circle id="Oval" cx="19" cy="65.2" r="4"></circle>
                <circle id="Oval" cx="45" cy="65.2" r="4"></circle>
                <circle id="Oval" cx="71" cy="65.2" r="4"></circle>
                <circle id="Oval" cx="58" cy="75.2" r="4"></circle>
                <circle id="Oval" cx="32" cy="80.2" r="4"></circle>
            </g>
        </g>
    </g>
</svg>