<?xml version="1.0" encoding="UTF-8" standalone="no"?>
<svg width="100px" height="100px" viewBox="0 0 100 100" version="1.1" xmlns="http://www.w3.org/2000/svg" xmlns:xlink="http://www.w3.org/1999/xlink">
    <!-- Generator: Sketch 40.3 (33839) - http://www.bohemiancoding.com/sketch -->
    <title>Group</title>
    <desc>Created with Sketch.</desc>
    <defs></defs>
    <g id="Page-1" stroke="none" stroke-width="1" fill="none" fill-rule="evenodd">
        <g id="Desktop-HD-Copy" transform="translate(-173.000000, -512.000000)" fill="#FFFFFF">
            <g id="Group" transform="translate(173.000000, 512.000000)">
                <path d="M50,29 C61.6,29 71,38.4 71,50 C71,61.6 61.6,71 50,71 C38.4,71 29,61.6 29,50 C29,38.4 38.4,29 50,29 L50,29 Z M50,23 C35.1,23 23,35.1 23,50 C23,64.9 35.1,77 50,77 C64.9,77 77,64.9 77,50 C77,35.1 64.9,23 50,23 L50,23 L50,23 Z" id="Shape"></path>
                <path d="M84.8,50 L84.8,50 C84.8,48.3 86.1,47 87.8,47 L96.8,47 C98.4,47 99.8,48.3 99.8,50 L99.8,50 C99.8,51.6 98.5,53 96.8,53 L87.8,53 C86.2,53 84.8,51.7 84.8,50 L84.8,50 Z" id="Shape"></path>
                <path d="M0.2,50 L0.2,50 C0.2,48.3 1.5,47 3.2,47 L12.2,47 C13.8,47 15.2,48.3 15.2,50 L15.2,50 C15.2,51.6 13.9,53 12.2,53 L3.2,53 C1.5,53 0.2,51.6 0.2,50 L0.2,50 Z" id="Shape"></path>
                <path d="M50,84.8 L50,84.8 C51.7,84.8 53,86.1 53,87.8 L53,96.8 C53,98.4 51.7,99.8 50,99.8 L50,99.8 C48.4,99.8 47,98.5 47,96.8 L47,87.8 C47,86.2 48.3,84.8 50,84.8 L50,84.8 Z" id="Shape"></path>
                <path d="M50,0.2 L50,0.2 C51.7,0.2 53,1.5 53,3.2 L53,12.2 C53,13.8 51.7,15.2 50,15.2 L50,15.2 C48.4,15.2 47,13.9 47,12.2 L47,3.2 C47,1.5 48.4,0.2 50,0.2 L50,0.2 Z" id="Shape"></path>
                <path d="M25.3,74.6 L25.3,74.6 C26.5,75.8 26.5,77.7 25.3,78.8 L19,85.2 C17.8,86.4 15.9,86.4 14.8,85.2 L14.8,85.2 C13.6,84 13.6,82.1 14.8,81 L21.2,74.6 C22.3,73.4 24.2,73.4 25.3,74.6 L25.3,74.6 Z" id="Shape"></path>
                <path d="M85.2,14.8 L85.2,14.8 C86.4,16 86.4,17.9 85.2,19 L78.8,25.4 C77.6,26.6 75.7,26.6 74.6,25.4 L74.6,25.4 C73.4,24.2 73.4,22.3 74.6,21.2 L81,14.8 C82.2,13.6 84.1,13.6 85.2,14.8 L85.2,14.8 Z" id="Shape"></path>
                <path d="M25.4,25.3 L25.4,25.3 C24.2,26.5 22.3,26.5 21.2,25.3 L14.8,19 C13.6,17.8 13.6,15.9 14.8,14.8 L14.8,14.8 C16,13.6 17.9,13.6 19,14.8 L25.4,21.2 C26.6,22.3 26.6,24.2 25.4,25.3 L25.4,25.3 Z" id="Shape"></path>
                <path d="M85.2,85.2 L85.2,85.2 C84,86.4 82.1,86.4 81,85.2 L74.6,78.8 C73.4,77.6 73.4,75.7 74.6,74.6 L74.6,74.6 C75.8,73.4 77.7,73.4 78.8,74.6 L85.2,81 C86.4,82.2 86.4,84.1 85.2,85.2 L85.2,85.2 Z" id="Shape"></path>
            </g>
        </g>
    </g>
</svg>