<?xml version="1.0" encoding="UTF-8" standalone="no"?>
<svg width="88px" height="80px" viewBox="0 0 88 80" version="1.1" xmlns="http://www.w3.org/2000/svg" xmlns:xlink="http://www.w3.org/1999/xlink">
    <!-- Generator: Sketch 40.3 (33839) - http://www.bohemiancoding.com/sketch -->
    <title>Group</title>
    <desc>Created with Sketch.</desc>
    <defs></defs>
    <g id="Page-1" stroke="none" stroke-width="1" fill="none" fill-rule="evenodd">
        <g id="Desktop-HD-Copy" transform="translate(-720.000000, -512.000000)" fill="#FFFFFF">
            <g id="Group" transform="translate(720.000000, 512.000000)">
                <path d="M73,43 L3.5,43 C1.8,43 0.5,41.7 0.5,40 C0.5,38.3 1.8,37 3.5,37 L73,37 C77.7,37 81.5,33.2 81.5,28.5 C81.5,23.8 77.7,20 73,20 C68.3,20 64.5,23.8 64.5,28.5 C64.5,30.2 63.2,31.5 61.5,31.5 C59.8,31.5 58.5,30.2 58.5,28.5 C58.5,20.5 65,14 73,14 C81,14 87.5,20.5 87.5,28.5 C87.5,36.5 81,43 73,43 L73,43 Z" id="Shape"></path>
                <path d="M47,80 C39,80 32.5,73.5 32.5,65.5 C32.5,63.8 33.8,62.5 35.5,62.5 C37.2,62.5 38.5,63.8 38.5,65.5 C38.5,70.2 42.3,74 47,74 C51.7,74 55.5,70.2 55.5,65.5 C55.5,60.8 51.7,57 47,57 L3.5,57 C1.8,57 0.5,55.7 0.5,54 C0.5,52.3 1.8,51 3.5,51 L47,51 C55,51 61.5,57.5 61.5,65.5 C61.5,73.5 55,80 47,80 L47,80 Z" id="Shape"></path>
                <path d="M33,29 L3.5,29 C1.8,29 0.5,27.7 0.5,26 C0.5,24.3 1.8,23 3.5,23 L33,23 C37.7,23 41.5,19.2 41.5,14.5 C41.5,9.8 37.7,6 33,6 C28.3,6 24.5,9.8 24.5,14.5 C24.5,16.2 23.2,17.5 21.5,17.5 C19.8,17.5 18.5,16.2 18.5,14.5 C18.5,6.5 25,0 33,0 C41,0 47.5,6.5 47.5,14.5 C47.5,22.5 41,29 33,29 L33,29 Z" id="Shape"></path>
            </g>
        </g>
    </g>
</svg>